<mxfile host="Electron" agent="Mozilla/5.0 (X11; Linux x86_64) AppleWebKit/537.36 (KHTML, like Gecko) draw.io/24.7.17 Chrome/128.0.6613.36 Electron/32.0.1 Safari/537.36" version="24.7.17">
  <diagram name="Page-1" id="9ws3OG60d8IcmYPNSyHx">
    <mxGraphModel dx="1434" dy="870" grid="1" gridSize="10" guides="1" tooltips="1" connect="1" arrows="1" fold="1" page="1" pageScale="1" pageWidth="827" pageHeight="1169" math="0" shadow="0">
      <root>
        <mxCell id="0" />
        <mxCell id="1" parent="0" />
        <mxCell id="9E_pVvgxMgqQgSAn5JMx-1" value="" style="ellipse;whiteSpace=wrap;html=1;fillColor=#000000;" parent="1" vertex="1">
          <mxGeometry x="150" y="310" width="20" height="20" as="geometry" />
        </mxCell>
        <mxCell id="9E_pVvgxMgqQgSAn5JMx-11" style="edgeStyle=orthogonalEdgeStyle;rounded=0;orthogonalLoop=1;jettySize=auto;html=1;exitX=0.5;exitY=1;exitDx=0;exitDy=0;" parent="1" source="9E_pVvgxMgqQgSAn5JMx-2" edge="1">
          <mxGeometry relative="1" as="geometry">
            <mxPoint x="320" y="160" as="targetPoint" />
          </mxGeometry>
        </mxCell>
        <mxCell id="9E_pVvgxMgqQgSAn5JMx-2" value="" style="ellipse;whiteSpace=wrap;html=1;fillColor=#000000;" parent="1" vertex="1">
          <mxGeometry x="310" y="150" width="20" height="20" as="geometry" />
        </mxCell>
        <mxCell id="9E_pVvgxMgqQgSAn5JMx-3" value="" style="ellipse;whiteSpace=wrap;html=1;fillColor=#000000;" parent="1" vertex="1">
          <mxGeometry x="150" y="150" width="20" height="20" as="geometry" />
        </mxCell>
        <mxCell id="9E_pVvgxMgqQgSAn5JMx-6" value="&lt;font style=&quot;font-size: 24px;&quot;&gt;X&lt;sub&gt;1&lt;/sub&gt;&lt;/font&gt;" style="text;html=1;align=center;verticalAlign=middle;whiteSpace=wrap;rounded=0;" parent="1" vertex="1">
          <mxGeometry x="130" y="340" width="60" height="30" as="geometry" />
        </mxCell>
        <mxCell id="9E_pVvgxMgqQgSAn5JMx-7" value="&lt;font style=&quot;font-size: 24px;&quot;&gt;X&lt;sub&gt;2&lt;/sub&gt;&lt;/font&gt;" style="text;html=1;align=center;verticalAlign=middle;whiteSpace=wrap;rounded=0;" parent="1" vertex="1">
          <mxGeometry x="130" y="110" width="60" height="30" as="geometry" />
        </mxCell>
        <mxCell id="9E_pVvgxMgqQgSAn5JMx-8" value="&lt;font style=&quot;font-size: 24px;&quot;&gt;X&lt;sub&gt;3&lt;/sub&gt;&lt;/font&gt;" style="text;html=1;align=center;verticalAlign=middle;whiteSpace=wrap;rounded=0;" parent="1" vertex="1">
          <mxGeometry x="290" y="110" width="60" height="30" as="geometry" />
        </mxCell>
        <mxCell id="9E_pVvgxMgqQgSAn5JMx-9" value="&lt;span style=&quot;font-size: 24px;&quot;&gt;(a)&lt;/span&gt;" style="text;html=1;align=center;verticalAlign=middle;whiteSpace=wrap;rounded=0;" parent="1" vertex="1">
          <mxGeometry x="60" y="110" width="60" height="30" as="geometry" />
        </mxCell>
        <mxCell id="9E_pVvgxMgqQgSAn5JMx-14" value="" style="ellipse;whiteSpace=wrap;html=1;fillColor=#000000;" parent="1" vertex="1">
          <mxGeometry x="310" y="310" width="20" height="20" as="geometry" />
        </mxCell>
        <mxCell id="9E_pVvgxMgqQgSAn5JMx-15" value="&lt;font style=&quot;font-size: 24px;&quot;&gt;X&lt;sub&gt;4&lt;/sub&gt;&lt;/font&gt;" style="text;html=1;align=center;verticalAlign=middle;whiteSpace=wrap;rounded=0;" parent="1" vertex="1">
          <mxGeometry x="290" y="340" width="60" height="30" as="geometry" />
        </mxCell>
        <mxCell id="9E_pVvgxMgqQgSAn5JMx-19" value="" style="ellipse;whiteSpace=wrap;html=1;fillColor=#000000;" parent="1" vertex="1">
          <mxGeometry x="500" y="310" width="20" height="20" as="geometry" />
        </mxCell>
        <mxCell id="9E_pVvgxMgqQgSAn5JMx-20" style="edgeStyle=orthogonalEdgeStyle;rounded=0;orthogonalLoop=1;jettySize=auto;html=1;exitX=0.5;exitY=1;exitDx=0;exitDy=0;" parent="1" source="9E_pVvgxMgqQgSAn5JMx-21" edge="1">
          <mxGeometry relative="1" as="geometry">
            <mxPoint x="670" y="160" as="targetPoint" />
          </mxGeometry>
        </mxCell>
        <mxCell id="9E_pVvgxMgqQgSAn5JMx-21" value="" style="ellipse;whiteSpace=wrap;html=1;fillColor=#000000;" parent="1" vertex="1">
          <mxGeometry x="660" y="150" width="20" height="20" as="geometry" />
        </mxCell>
        <mxCell id="9E_pVvgxMgqQgSAn5JMx-22" value="" style="ellipse;whiteSpace=wrap;html=1;fillColor=#000000;" parent="1" vertex="1">
          <mxGeometry x="500" y="150" width="20" height="20" as="geometry" />
        </mxCell>
        <mxCell id="9E_pVvgxMgqQgSAn5JMx-23" value="" style="endArrow=none;html=1;rounded=0;exitX=0.5;exitY=1;exitDx=0;exitDy=0;strokeWidth=4;entryX=0.5;entryY=0;entryDx=0;entryDy=0;" parent="1" source="9E_pVvgxMgqQgSAn5JMx-21" target="9E_pVvgxMgqQgSAn5JMx-29" edge="1">
          <mxGeometry width="50" height="50" relative="1" as="geometry">
            <mxPoint x="740" y="470" as="sourcePoint" />
            <mxPoint x="790" y="420" as="targetPoint" />
          </mxGeometry>
        </mxCell>
        <mxCell id="9E_pVvgxMgqQgSAn5JMx-24" value="" style="endArrow=none;html=1;rounded=0;exitX=0;exitY=0.5;exitDx=0;exitDy=0;strokeWidth=4;entryX=1;entryY=0.5;entryDx=0;entryDy=0;" parent="1" source="9E_pVvgxMgqQgSAn5JMx-21" target="9E_pVvgxMgqQgSAn5JMx-22" edge="1">
          <mxGeometry width="50" height="50" relative="1" as="geometry">
            <mxPoint x="487" y="323" as="sourcePoint" />
            <mxPoint x="575" y="179" as="targetPoint" />
          </mxGeometry>
        </mxCell>
        <mxCell id="9E_pVvgxMgqQgSAn5JMx-25" value="&lt;font style=&quot;font-size: 24px;&quot;&gt;X&lt;sub&gt;1&lt;/sub&gt;&lt;/font&gt;" style="text;html=1;align=center;verticalAlign=middle;whiteSpace=wrap;rounded=0;" parent="1" vertex="1">
          <mxGeometry x="480" y="340" width="60" height="30" as="geometry" />
        </mxCell>
        <mxCell id="9E_pVvgxMgqQgSAn5JMx-26" value="&lt;font style=&quot;font-size: 24px;&quot;&gt;X&lt;sub&gt;2&lt;/sub&gt;&lt;/font&gt;" style="text;html=1;align=center;verticalAlign=middle;whiteSpace=wrap;rounded=0;" parent="1" vertex="1">
          <mxGeometry x="480" y="110" width="60" height="30" as="geometry" />
        </mxCell>
        <mxCell id="9E_pVvgxMgqQgSAn5JMx-27" value="&lt;font style=&quot;font-size: 24px;&quot;&gt;X&lt;sub&gt;3&lt;/sub&gt;&lt;/font&gt;" style="text;html=1;align=center;verticalAlign=middle;whiteSpace=wrap;rounded=0;" parent="1" vertex="1">
          <mxGeometry x="640" y="110" width="60" height="30" as="geometry" />
        </mxCell>
        <mxCell id="9E_pVvgxMgqQgSAn5JMx-28" value="&lt;span style=&quot;font-size: 24px;&quot;&gt;(b)&lt;/span&gt;" style="text;html=1;align=center;verticalAlign=middle;whiteSpace=wrap;rounded=0;" parent="1" vertex="1">
          <mxGeometry x="410" y="110" width="60" height="30" as="geometry" />
        </mxCell>
        <mxCell id="9E_pVvgxMgqQgSAn5JMx-29" value="" style="ellipse;whiteSpace=wrap;html=1;fillColor=#000000;" parent="1" vertex="1">
          <mxGeometry x="660" y="310" width="20" height="20" as="geometry" />
        </mxCell>
        <mxCell id="9E_pVvgxMgqQgSAn5JMx-30" value="&lt;font style=&quot;font-size: 24px;&quot;&gt;X&lt;sub&gt;4&lt;/sub&gt;&lt;/font&gt;" style="text;html=1;align=center;verticalAlign=middle;whiteSpace=wrap;rounded=0;" parent="1" vertex="1">
          <mxGeometry x="640" y="340" width="60" height="30" as="geometry" />
        </mxCell>
        <mxCell id="9E_pVvgxMgqQgSAn5JMx-31" value="" style="endArrow=none;html=1;rounded=0;exitX=0;exitY=0;exitDx=0;exitDy=0;strokeWidth=4;entryX=1;entryY=1;entryDx=0;entryDy=0;" parent="1" source="9E_pVvgxMgqQgSAn5JMx-29" target="9E_pVvgxMgqQgSAn5JMx-22" edge="1">
          <mxGeometry width="50" height="50" relative="1" as="geometry">
            <mxPoint x="520" y="320" as="sourcePoint" />
            <mxPoint x="520" y="180" as="targetPoint" />
          </mxGeometry>
        </mxCell>
        <mxCell id="9E_pVvgxMgqQgSAn5JMx-32" value="" style="ellipse;whiteSpace=wrap;html=1;fillColor=#000000;" parent="1" vertex="1">
          <mxGeometry x="860" y="310" width="20" height="20" as="geometry" />
        </mxCell>
        <mxCell id="9E_pVvgxMgqQgSAn5JMx-33" style="edgeStyle=orthogonalEdgeStyle;rounded=0;orthogonalLoop=1;jettySize=auto;html=1;exitX=0.5;exitY=1;exitDx=0;exitDy=0;" parent="1" source="9E_pVvgxMgqQgSAn5JMx-34" edge="1">
          <mxGeometry relative="1" as="geometry">
            <mxPoint x="1030" y="160" as="targetPoint" />
          </mxGeometry>
        </mxCell>
        <mxCell id="9E_pVvgxMgqQgSAn5JMx-34" value="" style="ellipse;whiteSpace=wrap;html=1;fillColor=#000000;" parent="1" vertex="1">
          <mxGeometry x="1020" y="150" width="20" height="20" as="geometry" />
        </mxCell>
        <mxCell id="9E_pVvgxMgqQgSAn5JMx-35" value="" style="ellipse;whiteSpace=wrap;html=1;fillColor=#000000;" parent="1" vertex="1">
          <mxGeometry x="860" y="150" width="20" height="20" as="geometry" />
        </mxCell>
        <mxCell id="9E_pVvgxMgqQgSAn5JMx-36" value="" style="endArrow=none;html=1;rounded=0;exitX=0.5;exitY=0;exitDx=0;exitDy=0;strokeWidth=4;" parent="1" source="9E_pVvgxMgqQgSAn5JMx-32" target="9E_pVvgxMgqQgSAn5JMx-35" edge="1">
          <mxGeometry width="50" height="50" relative="1" as="geometry">
            <mxPoint x="1100" y="470" as="sourcePoint" />
            <mxPoint x="1150" y="420" as="targetPoint" />
          </mxGeometry>
        </mxCell>
        <mxCell id="9E_pVvgxMgqQgSAn5JMx-37" value="" style="endArrow=none;html=1;rounded=0;exitX=0;exitY=0.5;exitDx=0;exitDy=0;strokeWidth=4;entryX=1;entryY=0.5;entryDx=0;entryDy=0;" parent="1" source="9E_pVvgxMgqQgSAn5JMx-34" target="9E_pVvgxMgqQgSAn5JMx-35" edge="1">
          <mxGeometry width="50" height="50" relative="1" as="geometry">
            <mxPoint x="847" y="323" as="sourcePoint" />
            <mxPoint x="935" y="179" as="targetPoint" />
          </mxGeometry>
        </mxCell>
        <mxCell id="9E_pVvgxMgqQgSAn5JMx-38" value="&lt;font style=&quot;font-size: 24px;&quot;&gt;X&lt;sub&gt;1&lt;/sub&gt;&lt;/font&gt;" style="text;html=1;align=center;verticalAlign=middle;whiteSpace=wrap;rounded=0;" parent="1" vertex="1">
          <mxGeometry x="840" y="340" width="60" height="30" as="geometry" />
        </mxCell>
        <mxCell id="9E_pVvgxMgqQgSAn5JMx-39" value="&lt;font style=&quot;font-size: 24px;&quot;&gt;X&lt;sub&gt;2&lt;/sub&gt;&lt;/font&gt;" style="text;html=1;align=center;verticalAlign=middle;whiteSpace=wrap;rounded=0;" parent="1" vertex="1">
          <mxGeometry x="840" y="110" width="60" height="30" as="geometry" />
        </mxCell>
        <mxCell id="9E_pVvgxMgqQgSAn5JMx-40" value="&lt;font style=&quot;font-size: 24px;&quot;&gt;X&lt;sub&gt;3&lt;/sub&gt;&lt;/font&gt;" style="text;html=1;align=center;verticalAlign=middle;whiteSpace=wrap;rounded=0;" parent="1" vertex="1">
          <mxGeometry x="1000" y="110" width="60" height="30" as="geometry" />
        </mxCell>
        <mxCell id="9E_pVvgxMgqQgSAn5JMx-41" value="&lt;span style=&quot;font-size: 24px;&quot;&gt;(c)&lt;/span&gt;" style="text;html=1;align=center;verticalAlign=middle;whiteSpace=wrap;rounded=0;" parent="1" vertex="1">
          <mxGeometry x="770" y="110" width="60" height="30" as="geometry" />
        </mxCell>
        <mxCell id="9E_pVvgxMgqQgSAn5JMx-42" value="" style="ellipse;whiteSpace=wrap;html=1;fillColor=#000000;" parent="1" vertex="1">
          <mxGeometry x="1020" y="310" width="20" height="20" as="geometry" />
        </mxCell>
        <mxCell id="9E_pVvgxMgqQgSAn5JMx-43" value="&lt;font style=&quot;font-size: 24px;&quot;&gt;X&lt;sub&gt;4&lt;/sub&gt;&lt;/font&gt;" style="text;html=1;align=center;verticalAlign=middle;whiteSpace=wrap;rounded=0;" parent="1" vertex="1">
          <mxGeometry x="1000" y="340" width="60" height="30" as="geometry" />
        </mxCell>
        <mxCell id="9E_pVvgxMgqQgSAn5JMx-44" value="" style="endArrow=none;html=1;rounded=0;exitX=0.5;exitY=0;exitDx=0;exitDy=0;strokeWidth=4;entryX=0.5;entryY=1;entryDx=0;entryDy=0;" parent="1" source="9E_pVvgxMgqQgSAn5JMx-42" target="9E_pVvgxMgqQgSAn5JMx-34" edge="1">
          <mxGeometry width="50" height="50" relative="1" as="geometry">
            <mxPoint x="880" y="320" as="sourcePoint" />
            <mxPoint x="880" y="180" as="targetPoint" />
          </mxGeometry>
        </mxCell>
        <mxCell id="9E_pVvgxMgqQgSAn5JMx-45" value="" style="endArrow=none;html=1;rounded=0;exitX=0;exitY=0.5;exitDx=0;exitDy=0;strokeWidth=4;entryX=1;entryY=0.5;entryDx=0;entryDy=0;" parent="1" source="9E_pVvgxMgqQgSAn5JMx-42" target="9E_pVvgxMgqQgSAn5JMx-32" edge="1">
          <mxGeometry width="50" height="50" relative="1" as="geometry">
            <mxPoint x="1030" y="170" as="sourcePoint" />
            <mxPoint x="890" y="170" as="targetPoint" />
          </mxGeometry>
        </mxCell>
        <mxCell id="9LMLeEzytqxTbZS5crl7-27" value="" style="ellipse;whiteSpace=wrap;html=1;fillColor=#000000;" vertex="1" parent="1">
          <mxGeometry x="1220" y="310" width="20" height="20" as="geometry" />
        </mxCell>
        <mxCell id="9LMLeEzytqxTbZS5crl7-28" style="edgeStyle=orthogonalEdgeStyle;rounded=0;orthogonalLoop=1;jettySize=auto;html=1;exitX=0.5;exitY=1;exitDx=0;exitDy=0;" edge="1" parent="1" source="9LMLeEzytqxTbZS5crl7-29">
          <mxGeometry relative="1" as="geometry">
            <mxPoint x="1390" y="160" as="targetPoint" />
          </mxGeometry>
        </mxCell>
        <mxCell id="9LMLeEzytqxTbZS5crl7-29" value="" style="ellipse;whiteSpace=wrap;html=1;fillColor=#000000;" vertex="1" parent="1">
          <mxGeometry x="1380" y="150" width="20" height="20" as="geometry" />
        </mxCell>
        <mxCell id="9LMLeEzytqxTbZS5crl7-30" value="" style="ellipse;whiteSpace=wrap;html=1;fillColor=#000000;" vertex="1" parent="1">
          <mxGeometry x="1220" y="150" width="20" height="20" as="geometry" />
        </mxCell>
        <mxCell id="9LMLeEzytqxTbZS5crl7-31" value="" style="endArrow=none;html=1;rounded=0;exitX=0.5;exitY=0;exitDx=0;exitDy=0;strokeWidth=4;" edge="1" parent="1" source="9LMLeEzytqxTbZS5crl7-27" target="9LMLeEzytqxTbZS5crl7-30">
          <mxGeometry width="50" height="50" relative="1" as="geometry">
            <mxPoint x="1460" y="470" as="sourcePoint" />
            <mxPoint x="1510" y="420" as="targetPoint" />
          </mxGeometry>
        </mxCell>
        <mxCell id="9LMLeEzytqxTbZS5crl7-32" value="" style="endArrow=none;html=1;rounded=0;exitX=0;exitY=0.5;exitDx=0;exitDy=0;strokeWidth=4;entryX=1;entryY=0.5;entryDx=0;entryDy=0;" edge="1" parent="1" source="9LMLeEzytqxTbZS5crl7-29" target="9LMLeEzytqxTbZS5crl7-30">
          <mxGeometry width="50" height="50" relative="1" as="geometry">
            <mxPoint x="1207" y="323" as="sourcePoint" />
            <mxPoint x="1295" y="179" as="targetPoint" />
          </mxGeometry>
        </mxCell>
        <mxCell id="9LMLeEzytqxTbZS5crl7-33" value="&lt;font style=&quot;font-size: 24px;&quot;&gt;X&lt;sub&gt;1&lt;/sub&gt;&lt;/font&gt;" style="text;html=1;align=center;verticalAlign=middle;whiteSpace=wrap;rounded=0;" vertex="1" parent="1">
          <mxGeometry x="1200" y="340" width="60" height="30" as="geometry" />
        </mxCell>
        <mxCell id="9LMLeEzytqxTbZS5crl7-34" value="&lt;font style=&quot;font-size: 24px;&quot;&gt;X&lt;sub&gt;2&lt;/sub&gt;&lt;/font&gt;" style="text;html=1;align=center;verticalAlign=middle;whiteSpace=wrap;rounded=0;" vertex="1" parent="1">
          <mxGeometry x="1200" y="110" width="60" height="30" as="geometry" />
        </mxCell>
        <mxCell id="9LMLeEzytqxTbZS5crl7-35" value="&lt;font style=&quot;font-size: 24px;&quot;&gt;X&lt;sub&gt;3&lt;/sub&gt;&lt;/font&gt;" style="text;html=1;align=center;verticalAlign=middle;whiteSpace=wrap;rounded=0;" vertex="1" parent="1">
          <mxGeometry x="1360" y="110" width="60" height="30" as="geometry" />
        </mxCell>
        <mxCell id="9LMLeEzytqxTbZS5crl7-36" value="&lt;span style=&quot;font-size: 24px;&quot;&gt;(d)&lt;/span&gt;" style="text;html=1;align=center;verticalAlign=middle;whiteSpace=wrap;rounded=0;" vertex="1" parent="1">
          <mxGeometry x="1130" y="110" width="60" height="30" as="geometry" />
        </mxCell>
        <mxCell id="9LMLeEzytqxTbZS5crl7-37" value="" style="ellipse;whiteSpace=wrap;html=1;fillColor=#000000;" vertex="1" parent="1">
          <mxGeometry x="1380" y="310" width="20" height="20" as="geometry" />
        </mxCell>
        <mxCell id="9LMLeEzytqxTbZS5crl7-38" value="&lt;font style=&quot;font-size: 24px;&quot;&gt;X&lt;sub&gt;4&lt;/sub&gt;&lt;/font&gt;" style="text;html=1;align=center;verticalAlign=middle;whiteSpace=wrap;rounded=0;" vertex="1" parent="1">
          <mxGeometry x="1360" y="340" width="60" height="30" as="geometry" />
        </mxCell>
        <mxCell id="9LMLeEzytqxTbZS5crl7-39" value="" style="endArrow=none;html=1;rounded=0;exitX=0.5;exitY=0;exitDx=0;exitDy=0;strokeWidth=4;entryX=0.5;entryY=1;entryDx=0;entryDy=0;" edge="1" parent="1" source="9LMLeEzytqxTbZS5crl7-37" target="9LMLeEzytqxTbZS5crl7-29">
          <mxGeometry width="50" height="50" relative="1" as="geometry">
            <mxPoint x="1240" y="320" as="sourcePoint" />
            <mxPoint x="1240" y="180" as="targetPoint" />
          </mxGeometry>
        </mxCell>
        <mxCell id="9LMLeEzytqxTbZS5crl7-40" value="" style="endArrow=none;html=1;rounded=0;exitX=0;exitY=0.5;exitDx=0;exitDy=0;strokeWidth=4;entryX=1;entryY=0.5;entryDx=0;entryDy=0;" edge="1" parent="1" source="9LMLeEzytqxTbZS5crl7-37" target="9LMLeEzytqxTbZS5crl7-27">
          <mxGeometry width="50" height="50" relative="1" as="geometry">
            <mxPoint x="1390" y="170" as="sourcePoint" />
            <mxPoint x="1250" y="170" as="targetPoint" />
          </mxGeometry>
        </mxCell>
        <mxCell id="9LMLeEzytqxTbZS5crl7-41" value="" style="endArrow=none;html=1;rounded=0;exitX=1;exitY=0;exitDx=0;exitDy=0;strokeWidth=4;entryX=0;entryY=1;entryDx=0;entryDy=0;" edge="1" parent="1" source="9LMLeEzytqxTbZS5crl7-27" target="9LMLeEzytqxTbZS5crl7-29">
          <mxGeometry width="50" height="50" relative="1" as="geometry">
            <mxPoint x="1240" y="320" as="sourcePoint" />
            <mxPoint x="1240" y="180" as="targetPoint" />
          </mxGeometry>
        </mxCell>
        <mxCell id="9LMLeEzytqxTbZS5crl7-42" value="" style="endArrow=none;html=1;rounded=0;exitX=0;exitY=0;exitDx=0;exitDy=0;strokeWidth=4;entryX=1;entryY=1;entryDx=0;entryDy=0;" edge="1" parent="1" source="9LMLeEzytqxTbZS5crl7-37" target="9LMLeEzytqxTbZS5crl7-30">
          <mxGeometry width="50" height="50" relative="1" as="geometry">
            <mxPoint x="1250" y="330" as="sourcePoint" />
            <mxPoint x="1250" y="190" as="targetPoint" />
          </mxGeometry>
        </mxCell>
      </root>
    </mxGraphModel>
  </diagram>
</mxfile>
